<mxfile host="app.diagrams.net" modified="2024-04-17T12:20:15.142Z" agent="Mozilla/5.0 (Windows NT 10.0; Win64; x64) AppleWebKit/537.36 (KHTML, like Gecko) Chrome/123.0.0.0 Safari/537.36" etag="g-n2LQFhBLn6VP9vAj66" version="24.1.0" type="github">
  <diagram name="第 1 页" id="Zz-yE3sN_qA-QzTztnrS">
    <mxGraphModel dx="863" dy="483" grid="1" gridSize="10" guides="1" tooltips="1" connect="1" arrows="1" fold="1" page="1" pageScale="1" pageWidth="827" pageHeight="1169" background="#ffffff" math="1" shadow="0">
      <root>
        <mxCell id="0" />
        <mxCell id="1" parent="0" />
        <mxCell id="tpgCdPtoJpIrEywPEl91-54" style="edgeStyle=orthogonalEdgeStyle;rounded=0;orthogonalLoop=1;jettySize=auto;html=1;exitX=0.5;exitY=1;exitDx=0;exitDy=0;entryX=0.5;entryY=0;entryDx=0;entryDy=0;" parent="1" source="tpgCdPtoJpIrEywPEl91-1" target="tpgCdPtoJpIrEywPEl91-53" edge="1">
          <mxGeometry relative="1" as="geometry" />
        </mxCell>
        <mxCell id="tpgCdPtoJpIrEywPEl91-1" value="&lt;font style=&quot;font-size: 18px;&quot; face=&quot;宋体&quot;&gt;第一章&lt;br&gt;绪论&lt;/font&gt;" style="rounded=1;whiteSpace=wrap;html=1;fillColor=#dae8fc;strokeColor=#6c8ebf;" parent="1" vertex="1">
          <mxGeometry x="320" y="40" width="160" height="50" as="geometry" />
        </mxCell>
        <mxCell id="tpgCdPtoJpIrEywPEl91-58" style="edgeStyle=orthogonalEdgeStyle;rounded=0;orthogonalLoop=1;jettySize=auto;html=1;exitX=0.5;exitY=1;exitDx=0;exitDy=0;entryX=0.5;entryY=0;entryDx=0;entryDy=0;" parent="1" source="tpgCdPtoJpIrEywPEl91-53" target="tpgCdPtoJpIrEywPEl91-55" edge="1">
          <mxGeometry relative="1" as="geometry" />
        </mxCell>
        <mxCell id="tpgCdPtoJpIrEywPEl91-59" style="edgeStyle=orthogonalEdgeStyle;rounded=0;orthogonalLoop=1;jettySize=auto;html=1;exitX=0.5;exitY=1;exitDx=0;exitDy=0;entryX=0.5;entryY=0;entryDx=0;entryDy=0;" parent="1" source="tpgCdPtoJpIrEywPEl91-53" target="tpgCdPtoJpIrEywPEl91-57" edge="1">
          <mxGeometry relative="1" as="geometry" />
        </mxCell>
        <mxCell id="tpgCdPtoJpIrEywPEl91-53" value="&lt;font style=&quot;font-size: 18px;&quot; face=&quot;宋体&quot;&gt;第二章&lt;br&gt;问题描述与分析&lt;/font&gt;" style="rounded=1;whiteSpace=wrap;html=1;fillColor=#dae8fc;strokeColor=#6c8ebf;" parent="1" vertex="1">
          <mxGeometry x="320" y="120" width="160" height="50" as="geometry" />
        </mxCell>
        <mxCell id="tpgCdPtoJpIrEywPEl91-61" style="edgeStyle=orthogonalEdgeStyle;rounded=0;orthogonalLoop=1;jettySize=auto;html=1;exitX=0.5;exitY=1;exitDx=0;exitDy=0;entryX=0.5;entryY=0;entryDx=0;entryDy=0;" parent="1" source="tpgCdPtoJpIrEywPEl91-55" target="tpgCdPtoJpIrEywPEl91-60" edge="1">
          <mxGeometry relative="1" as="geometry" />
        </mxCell>
        <mxCell id="tpgCdPtoJpIrEywPEl91-55" value="&lt;font style=&quot;font-size: 18px;&quot; face=&quot;宋体&quot;&gt;第三&lt;/font&gt;&lt;span style=&quot;color: rgba(0, 0, 0, 0); font-family: monospace; font-size: 0px; text-align: start; text-wrap: nowrap;&quot;&gt;%3CmxGraphModel%3E%3Croot%3E%3CmxCell%20id%3D%220%22%2F%3E%3CmxCell%20id%3D%221%22%20parent%3D%220%22%2F%3E%3CmxCell%20id%3D%222%22%20value%3D%22%26lt%3Bfont%20style%3D%26quot%3Bfont-size%3A%2018px%3B%26quot%3B%20face%3D%26quot%3B%E5%AE%8B%E4%BD%93%26quot%3B%26gt%3B%E7%AC%AC%E4%B8%80%E7%AB%A0%26lt%3Bbr%26gt%3B%E7%BB%AA%E8%AE%BA%26lt%3B%2Ffont%26gt%3B%22%20style%3D%22rounded%3D1%3BwhiteSpace%3Dwrap%3Bhtml%3D1%3BfillColor%3D%23dae8fc%3BstrokeColor%3D%236c8ebf%3B%22%20vertex%3D%221%22%20parent%3D%221%22%3E%3CmxGeometry%20x%3D%22310%22%20y%3D%2230%22%20width%3D%22160%22%20height%3D%2250%22%20as%3D%22geometry%22%2F%3E%3C%2FmxCell%3E%3C%2Froot%3E%3C%2FmxGraphModel%3E&lt;/span&gt;&lt;font style=&quot;font-size: 18px;&quot; face=&quot;宋体&quot;&gt;章&lt;br&gt;基于相关性蒸馏的&lt;/font&gt;&lt;font face=&quot;Times New Roman&quot; style=&quot;font-size: 18px;&quot;&gt;RGB-D&lt;/font&gt;&lt;font style=&quot;font-size: 18px;&quot; face=&quot;宋体&quot;&gt;语义分割模型&lt;/font&gt;" style="rounded=1;whiteSpace=wrap;html=1;fillColor=#dae8fc;strokeColor=#6c8ebf;" parent="1" vertex="1">
          <mxGeometry x="160" y="210" width="200" height="100" as="geometry" />
        </mxCell>
        <mxCell id="tpgCdPtoJpIrEywPEl91-62" style="edgeStyle=orthogonalEdgeStyle;rounded=0;orthogonalLoop=1;jettySize=auto;html=1;exitX=0.5;exitY=1;exitDx=0;exitDy=0;entryX=0.5;entryY=0;entryDx=0;entryDy=0;" parent="1" source="tpgCdPtoJpIrEywPEl91-57" target="tpgCdPtoJpIrEywPEl91-60" edge="1">
          <mxGeometry relative="1" as="geometry" />
        </mxCell>
        <mxCell id="tpgCdPtoJpIrEywPEl91-57" value="&lt;font style=&quot;font-size: 18px;&quot; face=&quot;宋体&quot;&gt;第四&lt;/font&gt;&lt;span style=&quot;color: rgba(0, 0, 0, 0); font-family: monospace; font-size: 0px; text-align: start; text-wrap: nowrap;&quot;&gt;%3CmxGraphModel%3E%3Croot%3E%3CmxCell%20id%3D%220%22%2F%3E%3CmxCell%20id%3D%221%22%20parent%3D%220%22%2F%3E%3CmxCell%20id%3D%222%22%20value%3D%22%26lt%3Bfont%20style%3D%26quot%3Bfont-size%3A%2018px%3B%26quot%3B%20face%3D%26quot%3B%E5%AE%8B%E4%BD%93%26quot%3B%26gt%3B%E7%AC%AC%E4%B8%80%E7%AB%A0%26lt%3Bbr%26gt%3B%E7%BB%AA%E8%AE%BA%26lt%3B%2Ffont%26gt%3B%22%20style%3D%22rounded%3D1%3BwhiteSpace%3Dwrap%3Bhtml%3D1%3BfillColor%3D%23dae8fc%3BstrokeColor%3D%236c8ebf%3B%22%20vertex%3D%221%22%20parent%3D%221%22%3E%3CmxGeometry%20x%3D%22310%22%20y%3D%2230%22%20width%3D%22160%22%20height%3D%2250%22%20as%3D%22geometry%22%2F%3E%3C%2FmxCell%3E%3C%2Froot%3E%3C%2FmxGraphModel%3E&lt;/span&gt;&lt;font style=&quot;font-size: 18px;&quot; face=&quot;宋体&quot;&gt;章&lt;br&gt;&lt;/font&gt;&lt;span style=&quot;font-size: 18px;&quot;&gt;&lt;font face=&quot;宋体&quot;&gt;基于单一主干和上下文感知增强的&lt;/font&gt;&lt;font face=&quot;Times New Roman&quot;&gt;RGB-D&lt;/font&gt;&lt;font face=&quot;宋体&quot;&gt;语义分割模型&lt;/font&gt;&lt;/span&gt;" style="rounded=1;whiteSpace=wrap;html=1;fillColor=#dae8fc;strokeColor=#6c8ebf;" parent="1" vertex="1">
          <mxGeometry x="440" y="210" width="200" height="100" as="geometry" />
        </mxCell>
        <mxCell id="tpgCdPtoJpIrEywPEl91-60" value="&lt;font style=&quot;font-size: 18px;&quot; face=&quot;宋体&quot;&gt;第五章&lt;br&gt;总结与展望&lt;/font&gt;" style="rounded=1;whiteSpace=wrap;html=1;fillColor=#dae8fc;strokeColor=#6c8ebf;" parent="1" vertex="1">
          <mxGeometry x="320" y="350" width="160" height="50" as="geometry" />
        </mxCell>
      </root>
    </mxGraphModel>
  </diagram>
</mxfile>
